<mxfile host="app.diagrams.net" modified="2024-02-09T12:56:20.120Z" agent="Mozilla/5.0 (X11; Linux x86_64) AppleWebKit/537.36 (KHTML, like Gecko) Chrome/121.0.0.0 Safari/537.36" version="23.1.2" etag="4M_ABVsAFqieVotiDIPA" type="github">
  <diagram name="PÃ¡gina-1" id="hgjXAtBwiWu7002elgsS">
    <mxGraphModel>
      <root>
        <mxCell id="0" />
        <mxCell id="1" parent="0" />
      </root>
    </mxGraphModel>
  </diagram>
</mxfile>
